<svg xmlns="http://www.w3.org/2000/svg" xmlns:xlink="http://www.w3.org/1999/xlink" width="24" height="24" viewBox="0 0 24 24">
  <defs>
    <path id="24px-a" d="M1.17950291,14.0153701 L5.24322916,14.0153701 L5.24322916,11.6924098 L1,11.6924098 C1.1640003,5.75931472 6.02513248,1 11.9978622,1 C18.0741751,1 23,5.92582489 23,12.0021378 C23,18.0784508 18.0741751,23.0042757 11.9978622,23.0042757 C6.60918441,23.0042757 2.12533516,19.1302443 1.17950291,14.0153701 Z M9.80162641,5.45699819 L6.01153324,5.45699819 L6.01153324,7.72756092 L7.26907568,7.72756092 L7.26907568,18.626262 L9.80162641,18.626262 L9.80162641,5.45699819 Z M18.8837803,12.0416301 C18.8837803,9.71866977 18.3423384,5.24740779 15.1810165,5.24740779 C12.0196945,5.24740779 11.4782526,9.71866977 11.4782526,12.0416301 C11.4782526,14.3646875 12.0196945,18.8359494 15.1810165,18.8359494 C18.3423384,18.8359494 18.8837803,14.3645904 18.8837803,12.0416301 Z M14.0107063,12.0416301 C14.0107063,11.1858026 13.8884453,7.62276572 15.1810165,7.62276572 C16.4735877,7.62276572 16.3513266,11.1858026 16.3513266,12.0416301 C16.3513266,12.8974576 16.4735877,16.4604945 15.1810165,16.4604945 C13.8884453,16.4604945 14.0107063,12.8974576 14.0107063,12.0416301 Z"/>
  </defs>
  <use fill="#FFF" xlink:href="#24px-a"/>
</svg>
